Coordinates
version=1
nRows=15
nColumns=34
inDegrees=yes

Units are S.I. units (second, meters, Newtons, ...)
If the header above contains a line with 'inDegrees', this indicates whether rotational values are in degrees (yes) or radians (no).

endheader
time	pelvis_tilt	pelvis_list	pelvis_rotation	pelvis_tx	pelvis_ty	pelvis_tz	hip_flexion_r	hip_adduction_r	hip_rotation_r	knee_angle_r	ankle_angle_r	subtalar_angle_r	mtp_angle_r	hip_flexion_l	hip_adduction_l	hip_rotation_l	knee_angle_l	ankle_angle_l	subtalar_angle_l	mtp_angle_l	lumbar_extension	lumbar_bending	lumbar_rotation	arm_flex_r	arm_add_r	arm_rot_r	elbow_flex_r	pro_sup_r	arm_flex_l	arm_add_l	arm_rot_l	elbow_flex_l	pro_sup_l
      3.50000000	     11.81402382	    -14.84586408	     15.44082387	     -1.02904821	      1.13275164	     -0.19221003	      5.81570567	      9.94114670	    -18.49804668	     76.93934580	     -2.05537167	      8.11017318	      0.00000000	     22.53288748	    -18.30195079	      2.43935313	     26.30222620	    -19.24768297	      0.57094744	      0.00000000	    -13.19525518	    -15.26694011	     -1.96276800	    101.85630987	     -7.07968532	     96.87413022	     24.65129144	     80.93409005	     22.91627126	     -3.57150013	   -332.15025335	     99.23207834	     74.27840217
      3.51666670	     11.74433079	    -14.90881387	     19.63337109	     -1.00371007	      1.13258234	     -0.19391449	      8.94746433	      9.61049290	    -17.06414095	     76.79827173	     -1.95299699	      9.08559538	      0.00000000	     20.87672477	    -18.15577112	      0.47586517	     26.06780342	    -16.02150137	      0.61782117	      0.00000000	    -14.43801688	    -16.40081436	      3.08545122	     93.16175788	     -3.00096170	     91.36962907	     24.85765577	     79.51296990	     23.92059487	      1.12469959	   -326.23204929	     99.34236523	     76.13981316
      3.53333330	     11.31061941	    -14.83938958	     23.13731736	     -0.98851776	      1.12774893	     -0.18923305	     12.55367932	      8.81893653	    -15.74425555	     76.64360029	     -2.60842246	      6.70507017	      0.00000000	     20.07369470	    -17.83157485	     -0.81469484	     25.91090438	    -12.55432994	     -1.38267578	      0.00000000	    -16.93938928	    -17.63858162	      4.98730408	     82.25987823	      1.10909890	     68.54190665	     30.00408163	    100.08581142	     22.58508348	      2.52319376	   -324.72880975	    106.67028165	     88.29858046
      3.55000000	     10.46039800	    -14.79835743	     26.23494560	     -0.97605468	      1.11493899	     -0.18988990	     16.96811415	      6.81306792	    -14.27301172	     76.23496039	     -2.80754575	      2.92147767	      0.00000000	     20.19405126	    -17.13111883	     -1.79405588	     25.43576137	     -9.53638861	     -3.66959745	      0.00000000	    -19.88207878	    -17.58799866	      7.54911897	     74.76220255	      6.26626871	     61.15919274	     27.81476574	    100.17705178	     20.85033428	      2.85435750	   -324.05116676	    114.41079027	     89.56266611
      3.56666670	      9.16431825	    -14.55468624	     29.65254366	     -0.95949332	      1.10644130	     -0.18498362	     21.33727507	      3.78785892	    -13.02248733	     74.99095077	     -4.33303306	     -3.03378550	      0.00000000	     21.49873784	    -15.95590069	     -2.21272344	     25.35645363	     -7.30420928	     -6.19913557	      0.00000000	    -23.17879762	    -17.52668573	      9.82700981	     68.14827109	      9.30731484	     55.05996818	     27.49055074	    102.24818519	     19.51533923	      3.49644312	   -323.97494275	    119.78091670	     91.94864559
      3.58333330	      7.93386429	    -14.27179558	     32.60796961	     -0.94822834	      1.09899387	     -0.18709586	     25.20946038	      0.22360041	    -11.15776149	     72.72034498	     -6.16477252	     -8.99152862	      0.00000000	     22.73849114	    -14.38998620	     -1.28602163	     25.34129635	     -4.34777192	     -7.50262623	      0.00000000	    -26.81353785	    -17.21238629	     10.41097471	     61.88263228	     12.59580505	     55.09637388	     28.64410905	    104.60395986	     16.42429866	      1.91625037	   -326.11530049	    126.11816450	     93.44526934
      3.60000000	      7.11186361	    -13.66221418	     36.58488608	     -0.93176928	      1.09321985	     -0.18653731	     27.06140707	     -3.28094754	     -9.27110366	     68.07606021	     -8.29514868	    -14.06431743	      0.00000000	     23.79125507	    -12.65039277	      0.17228035	     25.42829910	     -1.62092887	     -7.54384635	      0.00000000	    -30.27568711	    -17.44701314	     12.89398456	     56.44948139	     13.75356329	     55.91672943	     28.01370493	    105.32203898	     19.24082854	      3.31917811	   -330.13363800	    128.16252622	     93.60921062
      3.61666670	      6.45732010	    -13.10669020	     40.84485860	     -0.91652457	      1.08352240	     -0.17980615	     28.46537118	     -6.58215778	     -7.39685470	     63.05685266	    -10.65358507	    -18.30748349	      0.00000000	     25.28576598	    -11.18100239	      2.14898836	     26.35545078	      1.12215437	     -6.15334520	      0.00000000	    -32.69668300	    -17.05075871	     16.33642846	     51.05638840	     14.83598882	     58.01524099	     27.78913152	    105.79108613	     21.41145696	      4.86836162	   -332.94092469	    122.98015599	     93.62045220
      3.63333330	      5.16826282	    -13.30975088	     46.17527092	     -0.92830107	      1.06851831	     -0.17418677	     30.50380468	    -10.60512915	     -5.71000222	     57.22578642	    -12.86087800	    -20.29388785	      0.00000000	     29.55732815	     -8.68751596	      5.14033977	     28.62988254	      3.09055952	     -5.38916734	      0.00000000	    -33.42727272	    -14.49606102	     21.94641656	     45.71937175	     11.67971180	     59.04782268	     30.13960103	    105.02868153	     22.89139176	      5.52664186	   -332.64443684	    110.24555849	     93.17131370
      3.65000000	      4.12253988	    -13.57700898	     51.56984366	     -0.91854601	      1.06133512	     -0.17354939	     31.19826716	    -14.49453622	     -4.92808519	     50.88051669	    -13.22040919	    -19.60964777	      0.00000000	     33.77173329	     -6.16082829	      7.73310733	     31.57862489	      4.14944065	     -4.02072296	      0.00000000	    -34.79103216	    -12.71188877	     26.35185357	     39.19734747	     11.17074527	     51.38386698	     32.26588808	    101.15020609	     26.85355385	      2.27845471	   -335.41370746	    102.88764855	     89.93973110
      3.66666670	      3.03028275	    -13.75688056	     56.63923885	     -0.89934874	      1.04876928	     -0.17513356	     31.43744353	    -18.39270063	     -4.92839138	     45.58281394	    -11.81735124	    -18.79705224	      0.00000000	     37.92522695	     -3.71589285	      9.51590375	     35.45178125	      6.06588204	     -2.19768826	      0.00000000	    -35.63956943	    -10.52170089	     28.48147058	     34.88894333	     12.44062889	     50.74509001	     33.97393862	     99.63575060	     27.66906738	     -3.35053314	   -333.39171409	     97.97673366	     88.61778509
      3.68333330	      2.30137285	    -14.00231115	     60.78321354	     -0.86934395	      1.04339161	     -0.17917074	     30.62565645	    -21.03488301	     -5.63971727	     39.89289041	    -10.79705744	    -18.72373449	      0.00000000	     40.64276137	     -2.37782085	     10.78833827	     38.46443261	      7.12185748	     -0.61730607	      0.00000000	    -35.50545204	     -9.37577050	     27.19304575	     30.72865500	     12.66040428	     40.00686926	     42.71361268	     97.86453721	     26.76202453	     -2.59785817	   -341.67876579	     89.11519051	     87.56849974
      3.70000000	      1.48202269	    -14.01770171	     63.60569157	     -0.85157026	      1.04644338	     -0.17352203	     29.80416091	    -23.01142824	     -6.41832734	     33.43663836	    -10.41428999	    -19.25254027	      0.00000000	     42.23578593	     -1.85164425	     10.55447951	     39.51534301	      6.41879382	     -0.05975436	      0.00000000	    -35.57936968	     -8.72924248	     28.24002463	     28.84455895	     12.07308781	     37.68731933	     47.97251008	     98.04799264	     26.29209624	      5.68387318	   -360.98491266	     76.49838290	     87.51784030
      3.71666670	      0.19409729	    -14.90506305	     67.17961341	     -0.85650706	      1.03806300	     -0.16167971	     30.40688585	    -26.07016239	     -8.67056386	     27.16801871	    -10.48016100	    -18.64449602	      0.00000000	     45.52507601	     -0.01901015	     10.46677686	     39.88792166	      4.62818910	      0.05851331	      0.00000000	    -36.26709292	     -6.25590074	     28.03342327	     27.38408357	     11.29364041	     43.06087444	     56.08128170	     98.92221385	     20.41924848	     -9.40091791	   -353.82010598	     83.87916460	     89.05145579
      3.73333330	     -0.99963495	    -15.13760389	     70.98773050	     -0.84806341	      1.03739950	     -0.15248877	     30.45402127	    -29.19317756	    -11.13146991	     21.34089167	    -10.48294389	    -17.98523110	      0.00000000	     46.50917094	      1.87880191	     12.32102052	     39.32564590	      6.65792050	      3.94876892	      0.00000000	    -37.67155569	     -4.57887626	     27.97178043	     28.59402574	     11.66744974	     52.71274920	     55.18479157	     99.98501890	     16.39382011	    -20.54591234	   -349.97907318	     87.03838215	     89.73006367
